<svg width="37" height="37" viewBox="0 0 37 37" fill="none" xmlns="http://www.w3.org/2000/svg">
<circle cx="18.5" cy="18.5" r="18.5" fill="#E2ECFF"/>
<path d="M26 13.1054V15.2857H11V13.1054C11.0055 12.6843 11.1778 12.2825 11.479 11.9883C11.7803 11.694 12.186 11.5313 12.6071 11.5357H13.6786V12.6072C13.6786 13.0334 13.8479 13.4422 14.1493 13.7436C14.4507 14.045 14.8595 14.2143 15.2857 14.2143C15.712 14.2143 16.1207 14.045 16.4221 13.7436C16.7235 13.4422 16.8929 13.0334 16.8929 12.6072V11.5357H20.1071V12.6072C20.1071 13.0334 20.2765 13.4422 20.5779 13.7436C20.8793 14.045 21.288 14.2143 21.7143 14.2143C22.1405 14.2143 22.5493 14.045 22.8507 13.7436C23.1521 13.4422 23.3214 13.0334 23.3214 12.6072V11.5357H24.3929C24.814 11.5313 25.2197 11.694 25.521 11.9883C25.8222 12.2825 25.9945 12.6843 26 13.1054Z" fill="#0D5EF4"/>
<path d="M11 16.3571V24.966C11.0055 25.3872 11.1778 25.7889 11.479 26.0831C11.7803 26.3774 12.186 26.5401 12.6071 26.5357H24.3929C24.814 26.5401 25.2197 26.3774 25.521 26.0831C25.8222 25.7889 25.9945 25.3872 26 24.966V16.3571H11ZM15.8214 23.8571C15.821 23.9991 15.7644 24.1351 15.6641 24.2355C15.5637 24.3358 15.4277 24.3924 15.2857 24.3928H14.2143C14.0723 24.3924 13.9363 24.3358 13.8359 24.2355C13.7356 24.1351 13.679 23.9991 13.6786 23.8571V22.7857C13.679 22.6437 13.7356 22.5077 13.8359 22.4073C13.9363 22.307 14.0723 22.2504 14.2143 22.25H15.2857C15.4277 22.2504 15.5637 22.307 15.6641 22.4073C15.7644 22.5077 15.821 22.6437 15.8214 22.7857V23.8571ZM15.8214 20.1071C15.821 20.2491 15.7644 20.3851 15.6641 20.4855C15.5637 20.5858 15.4277 20.6424 15.2857 20.6428H14.2143C14.0723 20.6424 13.9363 20.5858 13.8359 20.4855C13.7356 20.3851 13.679 20.2491 13.6786 20.1071V19.0357C13.679 18.8937 13.7356 18.7577 13.8359 18.6573C13.9363 18.557 14.0723 18.5004 14.2143 18.5H15.2857C15.4277 18.5004 15.5637 18.557 15.6641 18.6573C15.7644 18.7577 15.821 18.8937 15.8214 19.0357V20.1071ZM19.5714 23.8571C19.571 23.9991 19.5144 24.1351 19.4141 24.2355C19.3137 24.3358 19.1777 24.3924 19.0357 24.3928H17.9643C17.8223 24.3924 17.6863 24.3358 17.5859 24.2355C17.4856 24.1351 17.429 23.9991 17.4286 23.8571V22.7857C17.429 22.6437 17.4856 22.5077 17.5859 22.4073C17.6863 22.307 17.8223 22.2504 17.9643 22.25H19.0357C19.1777 22.2504 19.3137 22.307 19.4141 22.4073C19.5144 22.5077 19.571 22.6437 19.5714 22.7857V23.8571ZM19.5714 20.1071C19.571 20.2491 19.5144 20.3851 19.4141 20.4855C19.3137 20.5858 19.1777 20.6424 19.0357 20.6428H17.9643C17.8223 20.6424 17.6863 20.5858 17.5859 20.4855C17.4856 20.3851 17.429 20.2491 17.4286 20.1071V19.0357C17.429 18.8937 17.4856 18.7577 17.5859 18.6573C17.6863 18.557 17.8223 18.5004 17.9643 18.5H19.0357C19.1777 18.5004 19.3137 18.557 19.4141 18.6573C19.5144 18.7577 19.571 18.8937 19.5714 19.0357V20.1071ZM23.3214 20.1071C23.321 20.2491 23.2644 20.3851 23.1641 20.4855C23.0637 20.5858 22.9277 20.6424 22.7857 20.6428H21.7143C21.5723 20.6424 21.4363 20.5858 21.3359 20.4855C21.2356 20.3851 21.179 20.2491 21.1786 20.1071V19.0357C21.179 18.8937 21.2356 18.7577 21.3359 18.6573C21.4363 18.557 21.5723 18.5004 21.7143 18.5H22.7857C22.9277 18.5004 23.0637 18.557 23.1641 18.6573C23.2644 18.7577 23.321 18.8937 23.3214 19.0357V20.1071Z" fill="#0D5EF4"/>
<path d="M15.8214 11.5357V12.6071C15.8214 12.7492 15.765 12.8855 15.6645 12.986C15.5641 13.0864 15.4278 13.1429 15.2857 13.1429C15.1436 13.1429 15.0074 13.0864 14.9069 12.986C14.8064 12.8855 14.75 12.7492 14.75 12.6071V11.5357C14.75 11.3936 14.8064 11.2574 14.9069 11.1569C15.0074 11.0564 15.1436 11 15.2857 11C15.4278 11 15.5641 11.0564 15.6645 11.1569C15.765 11.2574 15.8214 11.3936 15.8214 11.5357Z" fill="#0D5EF4"/>
<path d="M22.2492 11.5357V12.6071C22.2492 12.7492 22.1927 12.8855 22.0923 12.986C21.9918 13.0864 21.8555 13.1429 21.7134 13.1429C21.5714 13.1429 21.4351 13.0864 21.3346 12.986C21.2342 12.8855 21.1777 12.7492 21.1777 12.6071V11.5357C21.1777 11.3936 21.2342 11.2574 21.3346 11.1569C21.4351 11.0564 21.5714 11 21.7134 11C21.8555 11 21.9918 11.0564 22.0923 11.1569C22.1927 11.2574 22.2492 11.3936 22.2492 11.5357Z" fill="#0D5EF4"/>
</svg>
