<svg width="100" height="100" viewBox="0 0 100 100" fill="none" xmlns="http://www.w3.org/2000/svg">
<path d="M85.3712 14.6288C65.8621 -4.87626 34.1347 -4.87626 14.6256 14.6288C-4.87519 34.1338 -4.87519 65.8694 14.6256 85.3744C24.3801 95.1249 37.1902 99.9979 50.0005 99.9979C62.8108 99.9979 75.6166 95.1247 85.3712 85.3744C104.876 65.8696 104.876 34.1338 85.3712 14.6288ZM70.6309 64.7398C72.2608 66.3696 72.2608 69.0043 70.6309 70.6341C69.818 71.447 68.7509 71.8556 67.6836 71.8556C66.6165 71.8556 65.5492 71.447 64.7364 70.6341L50.0003 55.8938L35.2684 70.6298C34.4515 71.4427 33.3842 71.8513 32.3212 71.8513C31.2541 71.8513 30.1868 71.4427 29.3739 70.6298C27.744 69 27.744 66.3612 29.3739 64.7355L44.1058 49.9995L29.3698 35.2635C27.7399 33.6336 27.7399 30.9949 29.3698 29.3691C30.9955 27.7392 33.6343 27.7392 35.2641 29.3691L50.0001 44.1051L64.7362 29.3691C66.366 27.7392 69.0007 27.7392 70.6305 29.3691C72.2604 30.9949 72.2604 33.6336 70.6305 35.2635L55.8945 49.9995L70.6309 64.7398Z" fill="#313B4E"/>
</svg>
