<svg width="218" height="127" viewBox="0 0 218 127" fill="none" xmlns="http://www.w3.org/2000/svg">
<path d="M22.3486 52.309C22.1779 50.7019 22.0943 49.1453 22.0943 47.6103C22.0943 21.3603 43.6291 0 70.0979 0C87.1855 0 102.576 8.75959 111.227 23.1295C119.177 17.739 128.645 14.8059 138.336 14.8059C160.768 14.8059 179.923 30.0262 185.002 51.4081H188.446C204.742 51.4081 218 64.5529 218 80.7173C218 96.8817 204.746 110.026 188.446 110.026H29.5535C13.258 110.026 0 96.8817 0 80.7173C0 67.1473 9.38127 55.5195 22.3486 52.3054V52.309ZM29.5535 110.026H188.446C200.734 110.026 210.733 92.9072 210.733 80.7209C210.733 68.5346 200.734 58.6183 188.446 58.6183H182.03C180.261 58.6183 178.745 57.35 178.448 55.6168C175.116 36.1482 158.246 22.0161 138.336 22.0161C128.867 22.0161 119.638 25.3131 112.357 31.3018C111.496 32.008 110.348 32.2711 109.262 32.0513C108.168 31.8171 107.249 31.0928 106.762 30.0947C99.8876 15.977 85.8411 7.20658 70.0943 7.20658C47.6293 7.20658 29.3573 25.3311 29.3573 47.6103C29.3573 49.8227 29.5717 52.1072 30.0113 54.5971C30.1821 55.5735 29.9423 56.5717 29.3464 57.368C28.7506 58.1607 27.8531 58.676 26.8612 58.7949C15.6887 60.1245 7.25938 69.5507 7.25938 80.7173C7.25938 92.9036 17.2656 110.026 29.5535 110.026Z" fill="#FF8C42"/>
<path d="M44.5602 74.5481V79.9605H55.1498V86.9731H44.5602V92.9503H56.5617V100.339H35.3356V67.1589H56.5617V74.5481H44.5602ZM59.6139 87.1143C59.6139 84.3846 60.1003 82 61.0729 79.9605C62.077 77.921 63.4419 76.3522 65.1676 75.254C66.8933 74.1559 68.8072 73.6068 70.9094 73.6068C72.6038 73.6068 74.1098 73.9676 75.4276 74.6893C76.7768 75.3795 77.8279 76.3365 78.581 77.5602V65.5117H87.8527V100.339H78.581V96.6684C77.8593 97.8921 76.8396 98.8648 75.5218 99.5864C74.204 100.308 72.6508 100.669 70.8624 100.669C68.7602 100.669 66.8462 100.12 65.1205 99.0217C63.4262 97.9235 62.077 96.3547 61.0729 94.3152C60.1003 92.2444 59.6139 89.8441 59.6139 87.1143ZM78.628 87.1143C78.628 85.42 78.1574 84.0865 77.2161 83.1138C76.3062 82.1412 75.1766 81.6548 73.8274 81.6548C72.4469 81.6548 71.3016 82.1412 70.3917 83.1138C69.4818 84.0551 69.0269 85.3886 69.0269 87.1143C69.0269 88.8086 69.4818 90.1578 70.3917 91.1619C71.3016 92.1345 72.4469 92.6209 73.8274 92.6209C75.1766 92.6209 76.3062 92.1345 77.2161 91.1619C78.1574 90.1892 78.628 88.84 78.628 87.1143ZM120.124 73.9362V100.339H110.853V96.5743C110.068 97.7666 108.986 98.7393 107.605 99.4923C106.225 100.214 104.64 100.575 102.852 100.575C99.7767 100.575 97.3451 99.5708 95.5566 97.5627C93.7995 95.5232 92.921 92.7621 92.921 89.2793V73.9362H102.099V88.1027C102.099 89.6087 102.491 90.801 103.275 91.6796C104.091 92.5267 105.158 92.9503 106.476 92.9503C107.825 92.9503 108.892 92.5267 109.676 91.6796C110.46 90.801 110.853 89.6087 110.853 88.1027V73.9362H120.124Z" fill="#0D5EF4"/>
<path d="M129.845 100.716C128.214 100.716 126.896 100.277 125.892 99.3982C124.919 98.4883 124.433 97.343 124.433 95.9625C124.433 94.5819 124.919 93.4367 125.892 92.5267C126.896 91.6168 128.214 91.1619 129.845 91.1619C131.446 91.1619 132.732 91.6168 133.705 92.5267C134.709 93.4367 135.211 94.5819 135.211 95.9625C135.211 97.3117 134.709 98.4412 133.705 99.3511C132.732 100.261 131.446 100.716 129.845 100.716ZM138.024 87.1143C138.024 84.3846 138.511 82 139.483 79.9605C140.487 77.921 141.837 76.3522 143.531 75.254C145.257 74.1559 147.171 73.6068 149.273 73.6068C151.093 73.6068 152.661 73.9676 153.979 74.6893C155.297 75.4109 156.317 76.3836 157.038 77.6073V73.9362H166.263V100.339H157.038V96.6684C156.317 97.8921 155.281 98.8648 153.932 99.5864C152.614 100.308 151.061 100.669 149.273 100.669C147.171 100.669 145.257 100.12 143.531 99.0217C141.837 97.9235 140.487 96.3547 139.483 94.3152C138.511 92.2444 138.024 89.8441 138.024 87.1143ZM157.038 87.1143C157.038 85.42 156.568 84.0865 155.626 83.1138C154.717 82.1412 153.587 81.6548 152.238 81.6548C150.857 81.6548 149.712 82.1412 148.802 83.1138C147.892 84.0551 147.437 85.3886 147.437 87.1143C147.437 88.8086 147.892 90.1578 148.802 91.1619C149.712 92.1345 150.857 92.6209 152.238 92.6209C153.587 92.6209 154.717 92.1345 155.626 91.1619C156.568 90.1892 157.038 88.84 157.038 87.1143ZM176.179 71.4889C174.547 71.4889 173.23 71.0496 172.226 70.1711C171.253 69.2611 170.767 68.1316 170.767 66.7824C170.767 65.4018 171.253 64.2566 172.226 63.3467C173.23 62.4368 174.547 61.9818 176.179 61.9818C177.779 61.9818 179.066 62.4368 180.038 63.3467C181.042 64.2566 181.544 65.4018 181.544 66.7824C181.544 68.1316 181.042 69.2611 180.038 70.1711C179.066 71.0496 177.779 71.4889 176.179 71.4889ZM180.744 73.9362V100.339H171.52V73.9362H180.744Z" fill="#313B4E"/>
<path d="M42.9861 112.465C42.9861 113.382 42.6701 114.145 42.0381 114.756C41.4167 115.357 40.4634 115.657 39.1783 115.657H37.0611V120.255H35.6233V109.242H39.1783C40.4213 109.242 41.364 109.542 42.0065 110.143C42.6596 110.743 42.9861 111.517 42.9861 112.465ZM39.1783 114.472C39.9789 114.472 40.5687 114.298 40.9479 113.95C41.3271 113.603 41.5167 113.108 41.5167 112.465C41.5167 111.106 40.7373 110.427 39.1783 110.427H37.0611V114.472H39.1783ZM48.5493 120.397C47.7383 120.397 47.0009 120.213 46.3373 119.844C45.6843 119.475 45.1681 118.954 44.7889 118.28C44.4203 117.595 44.2359 116.805 44.2359 115.91C44.2359 115.025 44.4255 114.245 44.8047 113.571C45.1945 112.887 45.7211 112.365 46.3847 112.007C47.0483 111.638 47.7909 111.454 48.6125 111.454C49.4341 111.454 50.1767 111.638 50.8403 112.007C51.5039 112.365 52.0253 112.881 52.4045 113.555C52.7943 114.23 52.9891 115.014 52.9891 115.91C52.9891 116.805 52.789 117.595 52.3887 118.28C51.999 118.954 51.4671 119.475 50.7929 119.844C50.1188 120.213 49.3709 120.397 48.5493 120.397ZM48.5493 119.133C49.0655 119.133 49.55 119.012 50.0029 118.769C50.4559 118.527 50.8193 118.164 51.0931 117.679C51.3775 117.195 51.5197 116.605 51.5197 115.91C51.5197 115.214 51.3828 114.625 51.1089 114.14C50.8351 113.656 50.4769 113.297 50.0345 113.066C49.5921 112.823 49.1129 112.702 48.5967 112.702C48.0701 112.702 47.5855 112.823 47.1431 113.066C46.7113 113.297 46.3637 113.656 46.1003 114.14C45.837 114.625 45.7053 115.214 45.7053 115.91C45.7053 116.615 45.8317 117.211 46.0845 117.695C46.3479 118.18 46.6955 118.543 47.1273 118.785C47.5592 119.017 48.0332 119.133 48.5493 119.133ZM66.4136 111.596L63.7118 120.255H62.2266L60.141 113.382L58.0554 120.255H56.5702L53.8526 111.596H55.322L57.3128 118.864L59.4616 111.596H60.931L63.0324 118.88L64.9916 111.596H66.4136ZM75.7405 115.594C75.7405 115.868 75.7247 116.157 75.6931 116.463H68.7727C68.8254 117.316 69.1151 117.985 69.6417 118.469C70.1789 118.943 70.8267 119.18 71.5851 119.18C72.2066 119.18 72.7227 119.038 73.1335 118.754C73.5549 118.459 73.8498 118.069 74.0183 117.584H75.5667C75.335 118.417 74.8715 119.096 74.1763 119.623C73.4811 120.139 72.6174 120.397 71.5851 120.397C70.7635 120.397 70.0262 120.213 69.3731 119.844C68.7306 119.475 68.225 118.954 67.8563 118.28C67.4877 117.595 67.3033 116.805 67.3033 115.91C67.3033 115.014 67.4824 114.23 67.8405 113.555C68.1987 112.881 68.699 112.365 69.3415 112.007C69.9946 111.638 70.7425 111.454 71.5851 111.454C72.4067 111.454 73.1335 111.633 73.7655 111.991C74.3975 112.349 74.8821 112.844 75.2191 113.476C75.5667 114.098 75.7405 114.804 75.7405 115.594ZM74.2553 115.293C74.2553 114.746 74.1342 114.277 73.8919 113.887C73.6497 113.487 73.3179 113.187 72.8965 112.987C72.4857 112.776 72.0275 112.671 71.5219 112.671C70.7951 112.671 70.1737 112.902 69.6575 113.366C69.1519 113.829 68.8623 114.472 68.7885 115.293H74.2553ZM79.0762 113.002C79.329 112.507 79.6871 112.123 80.1506 111.849C80.6246 111.575 81.1986 111.438 81.8728 111.438V112.923H81.4936C79.882 112.923 79.0762 113.798 79.0762 115.546V120.255H77.6384V111.596H79.0762V113.002ZM91.4325 115.594C91.4325 115.868 91.4167 116.157 91.3851 116.463H84.4647C84.5174 117.316 84.8071 117.985 85.3337 118.469C85.8709 118.943 86.5187 119.18 87.2771 119.18C87.8986 119.18 88.4147 119.038 88.8255 118.754C89.2469 118.459 89.5418 118.069 89.7103 117.584H91.2587C91.027 118.417 90.5635 119.096 89.8683 119.623C89.1731 120.139 88.3094 120.397 87.2771 120.397C86.4555 120.397 85.7182 120.213 85.0651 119.844C84.4226 119.475 83.917 118.954 83.5483 118.28C83.1797 117.595 82.9953 116.805 82.9953 115.91C82.9953 115.014 83.1744 114.23 83.5325 113.555C83.8907 112.881 84.391 112.365 85.0335 112.007C85.6866 111.638 86.4345 111.454 87.2771 111.454C88.0987 111.454 88.8255 111.633 89.4575 111.991C90.0895 112.349 90.5741 112.844 90.9111 113.476C91.2587 114.098 91.4325 114.804 91.4325 115.594ZM89.9473 115.293C89.9473 114.746 89.8262 114.277 89.5839 113.887C89.3417 113.487 89.0099 113.187 88.5885 112.987C88.1777 112.776 87.7195 112.671 87.2139 112.671C86.4871 112.671 85.8657 112.902 85.3495 113.366C84.8439 113.829 84.5543 114.472 84.4805 115.293H89.9473ZM92.7932 115.894C92.7932 115.009 92.9722 114.235 93.3304 113.571C93.6885 112.897 94.1783 112.376 94.7998 112.007C95.4318 111.638 96.1375 111.454 96.917 111.454C97.5911 111.454 98.2178 111.612 98.7972 111.928C99.3765 112.234 99.8189 112.639 100.124 113.145V108.563H101.578V120.255H100.124V118.627C99.84 119.143 99.4186 119.57 98.8604 119.907C98.3021 120.234 97.649 120.397 96.9012 120.397C96.1322 120.397 95.4318 120.207 94.7998 119.828C94.1783 119.449 93.6885 118.917 93.3304 118.232C92.9722 117.548 92.7932 116.768 92.7932 115.894ZM100.124 115.91C100.124 115.257 99.9927 114.688 99.7294 114.203C99.466 113.719 99.1079 113.35 98.655 113.097C98.2126 112.834 97.7228 112.702 97.1856 112.702C96.6484 112.702 96.1586 112.829 95.7162 113.081C95.2738 113.334 94.9209 113.703 94.6576 114.187C94.3942 114.672 94.2626 115.241 94.2626 115.894C94.2626 116.557 94.3942 117.137 94.6576 117.632C94.9209 118.116 95.2738 118.49 95.7162 118.754C96.1586 119.006 96.6484 119.133 97.1856 119.133C97.7228 119.133 98.2126 119.006 98.655 118.754C99.1079 118.49 99.466 118.116 99.7294 117.632C99.9927 117.137 100.124 116.563 100.124 115.91ZM109.658 113.208C109.953 112.692 110.385 112.27 110.953 111.944C111.522 111.617 112.17 111.454 112.897 111.454C113.676 111.454 114.377 111.638 114.998 112.007C115.62 112.376 116.109 112.897 116.468 113.571C116.826 114.235 117.005 115.009 117.005 115.894C117.005 116.768 116.826 117.548 116.468 118.232C116.109 118.917 115.614 119.449 114.982 119.828C114.361 120.207 113.666 120.397 112.897 120.397C112.149 120.397 111.491 120.234 110.922 119.907C110.364 119.581 109.942 119.164 109.658 118.659V120.255H108.22V108.563H109.658V113.208ZM115.535 115.894C115.535 115.241 115.404 114.672 115.14 114.187C114.877 113.703 114.519 113.334 114.066 113.081C113.624 112.829 113.134 112.702 112.597 112.702C112.07 112.702 111.58 112.834 111.127 113.097C110.685 113.35 110.327 113.724 110.053 114.219C109.789 114.704 109.658 115.267 109.658 115.91C109.658 116.563 109.789 117.137 110.053 117.632C110.327 118.116 110.685 118.49 111.127 118.754C111.58 119.006 112.07 119.133 112.597 119.133C113.134 119.133 113.624 119.006 114.066 118.754C114.519 118.49 114.877 118.116 115.14 117.632C115.404 117.137 115.535 116.557 115.535 115.894ZM126.355 111.596L121.141 124.331H119.656L121.362 120.16L117.87 111.596H119.466L122.184 118.611L124.87 111.596H126.355ZM133.45 110.411V114.093H137.464V115.278H133.45V119.07H137.938V120.255H132.013V109.226H137.938V110.411H133.45ZM144.332 111.438C145.385 111.438 146.238 111.76 146.891 112.402C147.544 113.034 147.871 113.95 147.871 115.151V120.255H146.449V115.357C146.449 114.493 146.233 113.835 145.801 113.382C145.369 112.918 144.779 112.686 144.032 112.686C143.273 112.686 142.668 112.923 142.215 113.397C141.772 113.871 141.551 114.561 141.551 115.467V120.255H140.113V111.596H141.551V112.829C141.835 112.386 142.22 112.044 142.704 111.802C143.199 111.559 143.742 111.438 144.332 111.438ZM149.682 115.91C149.682 115.014 149.861 114.235 150.22 113.571C150.578 112.897 151.073 112.376 151.705 112.007C152.347 111.638 153.079 111.454 153.901 111.454C154.965 111.454 155.839 111.712 156.524 112.228C157.219 112.744 157.677 113.461 157.898 114.377H156.35C156.203 113.85 155.913 113.434 155.481 113.129C155.06 112.823 154.533 112.671 153.901 112.671C153.079 112.671 152.416 112.955 151.91 113.524C151.405 114.082 151.152 114.877 151.152 115.91C151.152 116.952 151.405 117.758 151.91 118.327C152.416 118.896 153.079 119.18 153.901 119.18C154.533 119.18 155.06 119.033 155.481 118.738C155.902 118.443 156.192 118.022 156.35 117.474H157.898C157.667 118.359 157.203 119.07 156.508 119.607C155.813 120.134 154.944 120.397 153.901 120.397C153.079 120.397 152.347 120.213 151.705 119.844C151.073 119.475 150.578 118.954 150.22 118.28C149.861 117.606 149.682 116.816 149.682 115.91ZM159.28 115.894C159.28 115.009 159.459 114.235 159.817 113.571C160.175 112.897 160.665 112.376 161.286 112.007C161.918 111.638 162.619 111.454 163.388 111.454C164.146 111.454 164.804 111.617 165.363 111.944C165.921 112.27 166.337 112.681 166.611 113.176V111.596H168.064V120.255H166.611V118.643C166.326 119.149 165.9 119.57 165.331 119.907C164.773 120.234 164.12 120.397 163.372 120.397C162.603 120.397 161.908 120.207 161.286 119.828C160.665 119.449 160.175 118.917 159.817 118.232C159.459 117.548 159.28 116.768 159.28 115.894ZM166.611 115.91C166.611 115.257 166.479 114.688 166.216 114.203C165.953 113.719 165.594 113.35 165.141 113.097C164.699 112.834 164.209 112.702 163.672 112.702C163.135 112.702 162.645 112.829 162.203 113.081C161.76 113.334 161.407 113.703 161.144 114.187C160.881 114.672 160.749 115.241 160.749 115.894C160.749 116.557 160.881 117.137 161.144 117.632C161.407 118.116 161.76 118.49 162.203 118.754C162.645 119.006 163.135 119.133 163.672 119.133C164.209 119.133 164.699 119.006 165.141 118.754C165.594 118.49 165.953 118.116 166.216 117.632C166.479 117.137 166.611 116.563 166.611 115.91ZM171.932 113.192C172.216 112.697 172.638 112.286 173.196 111.96C173.765 111.623 174.423 111.454 175.171 111.454C175.94 111.454 176.635 111.638 177.257 112.007C177.889 112.376 178.384 112.897 178.742 113.571C179.1 114.235 179.279 115.009 179.279 115.894C179.279 116.768 179.1 117.548 178.742 118.232C178.384 118.917 177.889 119.449 177.257 119.828C176.635 120.207 175.94 120.397 175.171 120.397C174.434 120.397 173.781 120.234 173.212 119.907C172.654 119.57 172.227 119.154 171.932 118.659V124.363H170.494V111.596H171.932V113.192ZM177.81 115.894C177.81 115.241 177.678 114.672 177.415 114.187C177.151 113.703 176.793 113.334 176.34 113.081C175.898 112.829 175.408 112.702 174.871 112.702C174.344 112.702 173.854 112.834 173.401 113.097C172.959 113.35 172.601 113.724 172.327 114.219C172.064 114.704 171.932 115.267 171.932 115.91C171.932 116.563 172.064 117.137 172.327 117.632C172.601 118.116 172.959 118.49 173.401 118.754C173.854 119.006 174.344 119.133 174.871 119.133C175.408 119.133 175.898 119.006 176.34 118.754C176.793 118.49 177.151 118.116 177.415 117.632C177.678 117.137 177.81 116.557 177.81 115.894Z" fill="#313B4E"/>
</svg>
