<svg width="23" height="23" viewBox="0 0 23 23" fill="none" xmlns="http://www.w3.org/2000/svg">
<path d="M5.07882 13.8197L4.28112 16.7914L1.36556 16.8529C0.49423 15.2402 0 13.395 0 11.4342C0 9.53815 0.462093 7.75012 1.28118 6.17572H1.28181L3.87748 6.6506L5.01454 9.22527C4.77656 9.91763 4.64685 10.6609 4.64685 11.4342C4.64694 12.2736 4.7993 13.0778 5.07882 13.8197Z" fill="#FBBB00"/>
<path d="M22.7164 9.29822C22.848 9.9899 22.9166 10.7042 22.9166 11.4343C22.9166 12.2529 22.8304 13.0514 22.6661 13.8217C22.1083 16.4428 20.6508 18.7315 18.6318 20.3511L18.6311 20.3505L15.3617 20.184L14.899 17.3016C16.2388 16.5175 17.2858 15.2905 17.8373 13.8217H11.7102V9.29822H17.9267H22.7164Z" fill="#518EF8"/>
<path d="M18.631 20.3505L18.6317 20.3511C16.668 21.9261 14.1736 22.8685 11.4583 22.8685C7.09464 22.8685 3.30082 20.4347 1.36548 16.853L5.07874 13.8198C6.04639 16.3968 8.53763 18.2314 11.4583 18.2314C12.7136 18.2314 13.8897 17.8927 14.8989 17.3015L18.631 20.3505Z" fill="#28B446"/>
<path d="M18.7722 2.63238L15.0602 5.66496C14.0158 5.01348 12.7811 4.63713 11.4584 4.63713C8.47167 4.63713 5.93383 6.55581 5.01465 9.2253L1.28188 6.17575H1.28125C3.18826 2.50674 7.02993 0 11.4584 0C14.2386 0 16.7878 0.98826 18.7722 2.63238Z" fill="#F14336"/>
</svg>
