<svg width="29" height="29" viewBox="0 0 29 29" fill="none" xmlns="http://www.w3.org/2000/svg">
<path d="M26.0952 3.5967L18.9523 0.905579C17.6667 0.480665 16.3809 0.622303 15.3809 1.33049C14.9524 1.61377 14.6666 1.89704 14.3809 2.18032H8.95234C6.80949 2.18032 4.95233 4.02162 4.95233 6.14618V7.56255C4.95233 8.1291 5.38091 8.69565 6.09519 8.69565C6.80949 8.69565 7.23806 8.1291 7.23806 7.56255V6.14618C7.23806 5.15472 8.09519 4.44653 8.95234 4.44653H13.6666V24.984H8.95234C7.95233 24.984 7.23806 24.1342 7.23806 23.2843V21.868C7.23806 21.3015 6.80949 20.7349 6.09519 20.7349C5.38091 20.7349 4.95233 21.1598 4.95233 21.7264V23.1427C4.95233 25.2672 6.66663 27.1085 8.95234 27.1085H14.3809C14.6666 27.3919 14.9524 27.8168 15.2381 27.9585C15.9524 28.3834 16.6667 28.6666 17.5237 28.6666C17.9523 28.6666 18.5238 28.5249 18.9523 28.3834L26.0952 25.6921C27.6666 25.1257 28.6666 23.7093 28.6666 22.0096V7.13764C28.6666 5.57963 27.5238 4.02161 26.0952 3.5967Z" fill="#313B4E"/>
<path d="M6.80949 16.769C6.38091 17.1939 6.38091 17.9021 6.80949 18.327C6.95235 18.4687 7.23806 18.6102 7.52377 18.6102C7.80948 18.6102 8.09519 18.4687 8.23805 18.327L11.0952 15.4943C11.2381 15.3526 11.2381 15.211 11.3809 15.211C11.3809 15.0694 11.5238 14.9277 11.5238 14.7861C11.5238 14.6444 11.5238 14.5028 11.3809 14.3612C11.3809 14.2196 11.2381 14.0779 11.0952 14.0779L8.23805 11.2451C7.80948 10.8202 7.0952 10.8202 6.66662 11.2451C6.23805 11.6701 6.23805 12.3783 6.66662 12.8032L7.66663 13.7947H1.80949C1.23805 13.7947 0.666626 14.2195 0.666626 14.9277C0.666626 15.6359 1.09519 16.0608 1.80949 16.0608H7.80948L6.80949 16.769Z" fill="#313B4E"/>
</svg>
