<svg width="39" height="39" viewBox="0 0 39 39" fill="none" xmlns="http://www.w3.org/2000/svg">
<circle cx="19.2559" cy="19.1625" r="19.125" fill="#0D5EF4"/>
<path d="M20.9599 14.3306L12.977 22.3141C12.9369 22.3543 12.9079 22.4052 12.894 22.4599L12.0092 26.0114C11.9827 26.1183 12.0142 26.232 12.0922 26.31C12.1512 26.369 12.2317 26.4017 12.3139 26.4017C12.3391 26.4017 12.3649 26.3986 12.39 26.3923L15.9415 25.5073C15.9969 25.4935 16.0472 25.4646 16.0873 25.4245L24.0709 17.4416L20.9599 14.3306Z" fill="white"/>
<path d="M26.0471 13.242L25.1584 12.3533C24.5645 11.7594 23.5294 11.76 22.9362 12.3533L21.8477 13.4418L24.9585 16.5527L26.0471 15.4642C26.3437 15.1677 26.5071 14.7729 26.5071 14.3531C26.5071 13.9333 26.3437 13.5386 26.0471 13.242Z" fill="white"/>
</svg>
