<svg width="26" height="26" viewBox="0 0 26 26" fill="none" xmlns="http://www.w3.org/2000/svg">
<path d="M25.3006 11.3099C25.3 11.3093 25.2994 11.3087 25.2988 11.3081L14.6918 0.701488C14.2397 0.249171 13.6386 0 12.9992 0C12.3598 0 11.7587 0.248973 11.3064 0.701289L0.704902 11.3026C0.701331 11.3061 0.69776 11.3099 0.694189 11.3135C-0.23425 12.2473 -0.232663 13.7623 0.698752 14.6937C1.12429 15.1195 1.68631 15.3661 2.28722 15.3919C2.31162 15.3942 2.33622 15.3954 2.36102 15.3954H2.78377V23.2013C2.78377 24.7459 4.04054 26.0027 5.58556 26.0027H9.73536C10.1559 26.0027 10.4972 25.6616 10.4972 25.2409V19.1211C10.4972 18.4162 11.0705 17.8429 11.7754 17.8429H14.223C14.9279 17.8429 15.5012 18.4162 15.5012 19.1211V25.2409C15.5012 25.6616 15.8422 26.0027 16.263 26.0027H20.4128C21.9578 26.0027 23.2146 24.7459 23.2146 23.2013V15.3954H23.6066C24.2458 15.3954 24.8469 15.1465 25.2994 14.6941C26.2318 13.7611 26.2322 12.2435 25.3006 11.3099Z" fill="white"/>
</svg>
