<svg width="218" height="127" viewBox="0 0 218 127" fill="none" xmlns="http://www.w3.org/2000/svg">
<path d="M22.3486 52.5636C22.1779 50.9565 22.0943 49.3999 22.0943 47.8649C22.0943 21.6149 43.6291 0.254639 70.0979 0.254639C87.1855 0.254639 102.576 9.01423 111.227 23.3842C119.177 17.9936 128.645 15.0606 138.336 15.0606C160.768 15.0606 179.923 30.2809 185.002 51.6628H188.446C204.742 51.6628 218 64.8076 218 80.9719C218 97.1363 204.746 110.281 188.446 110.281H29.5535C13.258 110.281 0 97.1363 0 80.9719C0 67.4019 9.38127 55.7741 22.3486 52.56V52.5636ZM29.5535 110.281H188.446C200.734 110.281 210.733 93.1619 210.733 80.9755C210.733 68.7892 200.734 58.873 188.446 58.873H182.03C180.261 58.873 178.745 57.6046 178.448 55.8714C175.116 36.4028 158.246 22.2707 138.336 22.2707C128.867 22.2707 119.638 25.5678 112.357 31.5564C111.496 32.2627 110.348 32.5257 109.262 32.3059C108.168 32.0717 107.249 31.3474 106.762 30.3493C99.8876 16.2316 85.8411 7.46122 70.0943 7.46122C47.6293 7.46122 29.3573 25.5858 29.3573 47.8649C29.3573 50.0773 29.5717 52.3618 30.0113 54.8517C30.1821 55.8282 29.9423 56.8263 29.3464 57.6226C28.7506 58.4153 27.8531 58.9306 26.8612 59.0495C15.6887 60.3791 7.25938 69.8053 7.25938 80.9719C7.25938 93.1583 17.2656 110.281 29.5535 110.281Z" fill="white"/>
<path d="M44.5602 74.8027V80.2151H55.1498V87.2278H44.5602V93.205H56.5617V100.594H35.3356V67.4136H56.5617V74.8027H44.5602ZM59.6139 87.369C59.6139 84.6392 60.1003 82.2546 61.0729 80.2151C62.077 78.1757 63.4419 76.6068 65.1676 75.5087C66.8933 74.4105 68.8072 73.8614 70.9094 73.8614C72.6038 73.8614 74.1098 74.2222 75.4276 74.9439C76.7768 75.6342 77.8279 76.5912 78.581 77.8148V65.7663H87.8527V100.594H78.581V96.9231C77.8593 98.1468 76.8396 99.1194 75.5218 99.8411C74.204 100.563 72.6508 100.924 70.8624 100.924C68.7602 100.924 66.8462 100.374 65.1205 99.2763C63.4262 98.1781 62.077 96.6093 61.0729 94.5698C60.1003 92.499 59.6139 90.0987 59.6139 87.369ZM78.628 87.369C78.628 85.6746 78.1574 84.3411 77.2161 83.3685C76.3062 82.3958 75.1766 81.9095 73.8274 81.9095C72.4469 81.9095 71.3016 82.3958 70.3917 83.3685C69.4818 84.3098 69.0269 85.6433 69.0269 87.369C69.0269 89.0633 69.4818 90.4125 70.3917 91.4165C71.3016 92.3892 72.4469 92.8755 73.8274 92.8755C75.1766 92.8755 76.3062 92.3892 77.2161 91.4165C78.1574 90.4438 78.628 89.0947 78.628 87.369ZM120.124 74.1909V100.594H110.853V96.8289C110.068 98.0212 108.986 98.9939 107.605 99.747C106.225 100.469 104.64 100.829 102.852 100.829C99.7767 100.829 97.3451 99.8254 95.5566 97.8173C93.7995 95.7778 92.921 93.0167 92.921 89.5339V74.1909H102.099V88.3573C102.099 89.8634 102.491 91.0557 103.275 91.9342C104.091 92.7814 105.158 93.205 106.476 93.205C107.825 93.205 108.892 92.7814 109.676 91.9342C110.46 91.0557 110.853 89.8634 110.853 88.3573V74.1909H120.124ZM129.845 100.971C128.214 100.971 126.896 100.531 125.892 99.6528C124.919 98.7429 124.433 97.5977 124.433 96.2171C124.433 94.8365 124.919 93.6913 125.892 92.7814C126.896 91.8715 128.214 91.4165 129.845 91.4165C131.446 91.4165 132.732 91.8715 133.705 92.7814C134.709 93.6913 135.211 94.8365 135.211 96.2171C135.211 97.5663 134.709 98.6958 133.705 99.6058C132.732 100.516 131.446 100.971 129.845 100.971ZM138.024 87.369C138.024 84.6392 138.511 82.2546 139.483 80.2151C140.487 78.1757 141.837 76.6068 143.531 75.5087C145.257 74.4105 147.171 73.8614 149.273 73.8614C151.093 73.8614 152.661 74.2222 153.979 74.9439C155.297 75.6656 156.317 76.6382 157.038 77.8619V74.1909H166.263V100.594H157.038V96.9231C156.317 98.1468 155.281 99.1194 153.932 99.8411C152.614 100.563 151.061 100.924 149.273 100.924C147.171 100.924 145.257 100.374 143.531 99.2763C141.837 98.1781 140.487 96.6093 139.483 94.5698C138.511 92.499 138.024 90.0987 138.024 87.369ZM157.038 87.369C157.038 85.6746 156.568 84.3411 155.626 83.3685C154.717 82.3958 153.587 81.9095 152.238 81.9095C150.857 81.9095 149.712 82.3958 148.802 83.3685C147.892 84.3098 147.437 85.6433 147.437 87.369C147.437 89.0633 147.892 90.4125 148.802 91.4165C149.712 92.3892 150.857 92.8755 152.238 92.8755C153.587 92.8755 154.717 92.3892 155.626 91.4165C156.568 90.4438 157.038 89.0947 157.038 87.369ZM176.179 71.7435C174.547 71.7435 173.23 71.3042 172.226 70.4257C171.253 69.5158 170.767 68.3862 170.767 67.037C170.767 65.6565 171.253 64.5112 172.226 63.6013C173.23 62.6914 174.547 62.2364 176.179 62.2364C177.779 62.2364 179.066 62.6914 180.038 63.6013C181.042 64.5112 181.544 65.6565 181.544 67.037C181.544 68.3862 181.042 69.5158 180.038 70.4257C179.066 71.3042 177.779 71.7435 176.179 71.7435ZM180.744 74.1909V100.594H171.52V74.1909H180.744Z" fill="white"/>
<path d="M42.9861 112.72C42.9861 113.636 42.6701 114.4 42.0381 115.011C41.4167 115.611 40.4634 115.911 39.1783 115.911H37.0611V120.509H35.6233V109.497H39.1783C40.4213 109.497 41.364 109.797 42.0065 110.397C42.6596 110.998 42.9861 111.772 42.9861 112.72ZM39.1783 114.726C39.9789 114.726 40.5687 114.553 40.9479 114.205C41.3271 113.857 41.5167 113.362 41.5167 112.72C41.5167 111.361 40.7373 110.682 39.1783 110.682H37.0611V114.726H39.1783ZM48.5493 120.651C47.7383 120.651 47.0009 120.467 46.3373 120.098C45.6843 119.73 45.1681 119.208 44.7889 118.534C44.4203 117.85 44.2359 117.06 44.2359 116.164C44.2359 115.279 44.4255 114.5 44.8047 113.826C45.1945 113.141 45.7211 112.62 46.3847 112.262C47.0483 111.893 47.7909 111.709 48.6125 111.709C49.4341 111.709 50.1767 111.893 50.8403 112.262C51.5039 112.62 52.0253 113.136 52.4045 113.81C52.7943 114.484 52.9891 115.269 52.9891 116.164C52.9891 117.06 52.789 117.85 52.3887 118.534C51.999 119.208 51.4671 119.73 50.7929 120.098C50.1188 120.467 49.3709 120.651 48.5493 120.651ZM48.5493 119.387C49.0655 119.387 49.55 119.266 50.0029 119.024C50.4559 118.782 50.8193 118.418 51.0931 117.934C51.3775 117.449 51.5197 116.859 51.5197 116.164C51.5197 115.469 51.3828 114.879 51.1089 114.395C50.8351 113.91 50.4769 113.552 50.0345 113.32C49.5921 113.078 49.1129 112.957 48.5967 112.957C48.0701 112.957 47.5855 113.078 47.1431 113.32C46.7113 113.552 46.3637 113.91 46.1003 114.395C45.837 114.879 45.7053 115.469 45.7053 116.164C45.7053 116.87 45.8317 117.465 46.0845 117.95C46.3479 118.434 46.6955 118.798 47.1273 119.04C47.5592 119.272 48.0332 119.387 48.5493 119.387ZM66.4136 111.851L63.7118 120.509H62.2266L60.141 113.636L58.0554 120.509H56.5702L53.8526 111.851H55.322L57.3128 119.119L59.4616 111.851H60.931L63.0324 119.135L64.9916 111.851H66.4136ZM75.7405 115.848C75.7405 116.122 75.7247 116.412 75.6931 116.717H68.7727C68.8254 117.57 69.1151 118.239 69.6417 118.724C70.1789 119.198 70.8267 119.435 71.5851 119.435C72.2066 119.435 72.7227 119.293 73.1335 119.008C73.5549 118.713 73.8498 118.324 74.0183 117.839H75.5667C75.335 118.671 74.8715 119.351 74.1763 119.877C73.4811 120.393 72.6174 120.651 71.5851 120.651C70.7635 120.651 70.0262 120.467 69.3731 120.098C68.7306 119.73 68.225 119.208 67.8563 118.534C67.4877 117.85 67.3033 117.06 67.3033 116.164C67.3033 115.269 67.4824 114.484 67.8405 113.81C68.1987 113.136 68.699 112.62 69.3415 112.262C69.9946 111.893 70.7425 111.709 71.5851 111.709C72.4067 111.709 73.1335 111.888 73.7655 112.246C74.3975 112.604 74.8821 113.099 75.2191 113.731C75.5667 114.353 75.7405 115.058 75.7405 115.848ZM74.2553 115.548C74.2553 115 74.1342 114.532 73.8919 114.142C73.6497 113.742 73.3179 113.441 72.8965 113.241C72.4857 113.031 72.0275 112.925 71.5219 112.925C70.7951 112.925 70.1737 113.157 69.6575 113.62C69.1519 114.084 68.8623 114.726 68.7885 115.548H74.2553ZM79.0762 113.257C79.329 112.762 79.6871 112.378 80.1506 112.104C80.6246 111.83 81.1986 111.693 81.8728 111.693V113.178H81.4936C79.882 113.178 79.0762 114.052 79.0762 115.801V120.509H77.6384V111.851H79.0762V113.257ZM91.4325 115.848C91.4325 116.122 91.4167 116.412 91.3851 116.717H84.4647C84.5174 117.57 84.8071 118.239 85.3337 118.724C85.8709 119.198 86.5187 119.435 87.2771 119.435C87.8986 119.435 88.4147 119.293 88.8255 119.008C89.2469 118.713 89.5418 118.324 89.7103 117.839H91.2587C91.027 118.671 90.5635 119.351 89.8683 119.877C89.1731 120.393 88.3094 120.651 87.2771 120.651C86.4555 120.651 85.7182 120.467 85.0651 120.098C84.4226 119.73 83.917 119.208 83.5483 118.534C83.1797 117.85 82.9953 117.06 82.9953 116.164C82.9953 115.269 83.1744 114.484 83.5325 113.81C83.8907 113.136 84.391 112.62 85.0335 112.262C85.6866 111.893 86.4345 111.709 87.2771 111.709C88.0987 111.709 88.8255 111.888 89.4575 112.246C90.0895 112.604 90.5741 113.099 90.9111 113.731C91.2587 114.353 91.4325 115.058 91.4325 115.848ZM89.9473 115.548C89.9473 115 89.8262 114.532 89.5839 114.142C89.3417 113.742 89.0099 113.441 88.5885 113.241C88.1777 113.031 87.7195 112.925 87.2139 112.925C86.4871 112.925 85.8657 113.157 85.3495 113.62C84.8439 114.084 84.5543 114.726 84.4805 115.548H89.9473ZM92.7932 116.148C92.7932 115.264 92.9722 114.489 93.3304 113.826C93.6885 113.152 94.1783 112.63 94.7998 112.262C95.4318 111.893 96.1375 111.709 96.917 111.709C97.5911 111.709 98.2178 111.867 98.7972 112.183C99.3765 112.488 99.8189 112.894 100.124 113.399V108.817H101.578V120.509H100.124V118.882C99.84 119.398 99.4186 119.825 98.8604 120.162C98.3021 120.488 97.649 120.651 96.9012 120.651C96.1322 120.651 95.4318 120.462 94.7998 120.083C94.1783 119.703 93.6885 119.172 93.3304 118.487C92.9722 117.802 92.7932 117.023 92.7932 116.148ZM100.124 116.164C100.124 115.511 99.9927 114.942 99.7294 114.458C99.466 113.973 99.1079 113.605 98.655 113.352C98.2126 113.089 97.7228 112.957 97.1856 112.957C96.6484 112.957 96.1586 113.083 95.7162 113.336C95.2738 113.589 94.9209 113.958 94.6576 114.442C94.3942 114.927 94.2626 115.495 94.2626 116.148C94.2626 116.812 94.3942 117.391 94.6576 117.886C94.9209 118.371 95.2738 118.745 95.7162 119.008C96.1586 119.261 96.6484 119.387 97.1856 119.387C97.7228 119.387 98.2126 119.261 98.655 119.008C99.1079 118.745 99.466 118.371 99.7294 117.886C99.9927 117.391 100.124 116.817 100.124 116.164ZM109.658 113.462C109.953 112.946 110.385 112.525 110.953 112.198C111.522 111.872 112.17 111.709 112.897 111.709C113.676 111.709 114.377 111.893 114.998 112.262C115.62 112.63 116.109 113.152 116.468 113.826C116.826 114.489 117.005 115.264 117.005 116.148C117.005 117.023 116.826 117.802 116.468 118.487C116.109 119.172 115.614 119.703 114.982 120.083C114.361 120.462 113.666 120.651 112.897 120.651C112.149 120.651 111.491 120.488 110.922 120.162C110.364 119.835 109.942 119.419 109.658 118.913V120.509H108.22V108.817H109.658V113.462ZM115.535 116.148C115.535 115.495 115.404 114.927 115.14 114.442C114.877 113.958 114.519 113.589 114.066 113.336C113.624 113.083 113.134 112.957 112.597 112.957C112.07 112.957 111.58 113.089 111.127 113.352C110.685 113.605 110.327 113.979 110.053 114.474C109.789 114.958 109.658 115.522 109.658 116.164C109.658 116.817 109.789 117.391 110.053 117.886C110.327 118.371 110.685 118.745 111.127 119.008C111.58 119.261 112.07 119.387 112.597 119.387C113.134 119.387 113.624 119.261 114.066 119.008C114.519 118.745 114.877 118.371 115.14 117.886C115.404 117.391 115.535 116.812 115.535 116.148ZM126.355 111.851L121.141 124.586H119.656L121.362 120.414L117.87 111.851H119.466L122.184 118.866L124.87 111.851H126.355ZM133.45 110.666V114.347H137.464V115.532H133.45V119.324H137.938V120.509H132.013V109.481H137.938V110.666H133.45ZM144.332 111.693C145.385 111.693 146.238 112.014 146.891 112.657C147.544 113.289 147.871 114.205 147.871 115.406V120.509H146.449V115.611C146.449 114.748 146.233 114.089 145.801 113.636C145.369 113.173 144.779 112.941 144.032 112.941C143.273 112.941 142.668 113.178 142.215 113.652C141.772 114.126 141.551 114.816 141.551 115.722V120.509H140.113V111.851H141.551V113.083C141.835 112.641 142.22 112.299 142.704 112.056C143.199 111.814 143.742 111.693 144.332 111.693ZM149.682 116.164C149.682 115.269 149.861 114.489 150.22 113.826C150.578 113.152 151.073 112.63 151.705 112.262C152.347 111.893 153.079 111.709 153.901 111.709C154.965 111.709 155.839 111.967 156.524 112.483C157.219 112.999 157.677 113.715 157.898 114.632H156.35C156.203 114.105 155.913 113.689 155.481 113.383C155.06 113.078 154.533 112.925 153.901 112.925C153.079 112.925 152.416 113.21 151.91 113.778C151.405 114.337 151.152 115.132 151.152 116.164C151.152 117.207 151.405 118.013 151.91 118.582C152.416 119.15 153.079 119.435 153.901 119.435C154.533 119.435 155.06 119.287 155.481 118.992C155.902 118.698 156.192 118.276 156.35 117.728H157.898C157.667 118.613 157.203 119.324 156.508 119.861C155.813 120.388 154.944 120.651 153.901 120.651C153.079 120.651 152.347 120.467 151.705 120.098C151.073 119.73 150.578 119.208 150.22 118.534C149.861 117.86 149.682 117.07 149.682 116.164ZM159.28 116.148C159.28 115.264 159.459 114.489 159.817 113.826C160.175 113.152 160.665 112.63 161.286 112.262C161.918 111.893 162.619 111.709 163.388 111.709C164.146 111.709 164.804 111.872 165.363 112.198C165.921 112.525 166.337 112.936 166.611 113.431V111.851H168.064V120.509H166.611V118.898C166.326 119.403 165.9 119.825 165.331 120.162C164.773 120.488 164.12 120.651 163.372 120.651C162.603 120.651 161.908 120.462 161.286 120.083C160.665 119.703 160.175 119.172 159.817 118.487C159.459 117.802 159.28 117.023 159.28 116.148ZM166.611 116.164C166.611 115.511 166.479 114.942 166.216 114.458C165.953 113.973 165.594 113.605 165.141 113.352C164.699 113.089 164.209 112.957 163.672 112.957C163.135 112.957 162.645 113.083 162.203 113.336C161.76 113.589 161.407 113.958 161.144 114.442C160.881 114.927 160.749 115.495 160.749 116.148C160.749 116.812 160.881 117.391 161.144 117.886C161.407 118.371 161.76 118.745 162.203 119.008C162.645 119.261 163.135 119.387 163.672 119.387C164.209 119.387 164.699 119.261 165.141 119.008C165.594 118.745 165.953 118.371 166.216 117.886C166.479 117.391 166.611 116.817 166.611 116.164ZM171.932 113.447C172.216 112.952 172.638 112.541 173.196 112.214C173.765 111.877 174.423 111.709 175.171 111.709C175.94 111.709 176.635 111.893 177.257 112.262C177.889 112.63 178.384 113.152 178.742 113.826C179.1 114.489 179.279 115.264 179.279 116.148C179.279 117.023 179.1 117.802 178.742 118.487C178.384 119.172 177.889 119.703 177.257 120.083C176.635 120.462 175.94 120.651 175.171 120.651C174.434 120.651 173.781 120.488 173.212 120.162C172.654 119.825 172.227 119.409 171.932 118.913V124.617H170.494V111.851H171.932V113.447ZM177.81 116.148C177.81 115.495 177.678 114.927 177.415 114.442C177.151 113.958 176.793 113.589 176.34 113.336C175.898 113.083 175.408 112.957 174.871 112.957C174.344 112.957 173.854 113.089 173.401 113.352C172.959 113.605 172.601 113.979 172.327 114.474C172.064 114.958 171.932 115.522 171.932 116.164C171.932 116.817 172.064 117.391 172.327 117.886C172.601 118.371 172.959 118.745 173.401 119.008C173.854 119.261 174.344 119.387 174.871 119.387C175.408 119.387 175.898 119.261 176.34 119.008C176.793 118.745 177.151 118.371 177.415 117.886C177.678 117.391 177.81 116.812 177.81 116.148Z" fill="white"/>
</svg>
