<svg width="33" height="33" viewBox="0 0 33 33" fill="none" xmlns="http://www.w3.org/2000/svg">
<path fill-rule="evenodd" clip-rule="evenodd" d="M26.7131 10.7131C26.7131 8.4523 24.881 6.62012 22.6201 6.62012H10.7131C8.4523 6.62012 6.62012 8.4523 6.62012 10.7131V22.6201C6.62012 24.881 8.4523 26.7131 10.7131 26.7131H22.6201C24.881 26.7131 26.7131 24.881 26.7131 22.6201V10.7131ZM19.6434 13.6899V19.6434C19.6434 20.2596 20.1435 20.7597 20.7597 20.7597C21.3758 20.7597 21.8759 20.2596 21.8759 19.6434V13.6899C21.8759 13.0737 21.3758 12.5736 20.7597 12.5736C20.1435 12.5736 19.6434 13.0737 19.6434 13.6899ZM18.155 19.6434V15.1783C18.155 13.7405 16.9896 12.5736 15.5503 12.5736H14.062C12.6227 12.5736 11.4573 13.7405 11.4573 15.1783V19.6434C11.4573 20.2596 11.9574 20.7597 12.5736 20.7597C13.1898 20.7597 13.6899 20.2596 13.6899 19.6434V18.5271H15.9224V19.6434C15.9224 20.2596 16.4225 20.7597 17.0387 20.7597C17.6549 20.7597 18.155 20.2596 18.155 19.6434ZM13.6899 16.2945H15.9224V15.1783C15.9224 14.9729 15.7557 14.8062 15.5503 14.8062H14.062C13.8566 14.8062 13.6899 14.9729 13.6899 15.1783V16.2945Z" fill="white"/>
<path fill-rule="evenodd" clip-rule="evenodd" d="M25.5967 17.7829H31.5502C32.1664 17.7829 32.6665 17.2828 32.6665 16.6666C32.6665 16.0504 32.1664 15.5503 31.5502 15.5503H25.5967C24.9806 15.5503 24.4805 16.0504 24.4805 16.6666C24.4805 17.2828 24.9806 17.7829 25.5967 17.7829Z" fill="white"/>
<path fill-rule="evenodd" clip-rule="evenodd" d="M17.7833 7.73627V1.78278C17.7833 1.1666 17.2832 0.666504 16.6671 0.666504C16.0509 0.666504 15.5508 1.1666 15.5508 1.78278V7.73627C15.5508 8.35246 16.0509 8.85255 16.6671 8.85255C17.2832 8.85255 17.7833 8.35246 17.7833 7.73627Z" fill="white"/>
<path fill-rule="evenodd" clip-rule="evenodd" d="M15.5508 25.5967V31.5502C15.5508 32.1664 16.0509 32.6665 16.6671 32.6665C17.2832 32.6665 17.7833 32.1664 17.7833 31.5502V25.5967C17.7833 24.9806 17.2832 24.4805 16.6671 24.4805C16.0509 24.4805 15.5508 24.9806 15.5508 25.5967Z" fill="white"/>
<path fill-rule="evenodd" clip-rule="evenodd" d="M7.73676 15.5503H1.78327C1.16709 15.5503 0.666992 16.0504 0.666992 16.6666C0.666992 17.2828 1.16709 17.7829 1.78327 17.7829H7.73676C8.35295 17.7829 8.85304 17.2828 8.85304 16.6666C8.85304 16.0504 8.35295 15.5503 7.73676 15.5503Z" fill="white"/>
<path fill-rule="evenodd" clip-rule="evenodd" d="M25.5967 13.3175H29.3177C29.9339 13.3175 30.434 12.8174 30.434 12.2012C30.434 11.5851 29.9339 11.085 29.3177 11.085H25.5967C24.9806 11.085 24.4805 11.5851 24.4805 12.2012C24.4805 12.8174 24.9806 13.3175 25.5967 13.3175Z" fill="white"/>
<path fill-rule="evenodd" clip-rule="evenodd" d="M13.3185 7.73614V4.0152C13.3185 3.39902 12.8184 2.89893 12.2022 2.89893C11.586 2.89893 11.0859 3.39902 11.0859 4.0152V7.73614C11.0859 8.35232 11.586 8.85241 12.2022 8.85241C12.8184 8.85241 13.3185 8.35232 13.3185 7.73614Z" fill="white"/>
<path fill-rule="evenodd" clip-rule="evenodd" d="M11.0859 25.5967V29.3177C11.0859 29.9339 11.586 30.434 12.2022 30.434C12.8184 30.434 13.3185 29.9339 13.3185 29.3177V25.5967C13.3185 24.9806 12.8184 24.4805 12.2022 24.4805C11.586 24.4805 11.0859 24.9806 11.0859 25.5967Z" fill="white"/>
<path fill-rule="evenodd" clip-rule="evenodd" d="M7.73662 11.085H4.01569C3.39951 11.085 2.89941 11.5851 2.89941 12.2012C2.89941 12.8174 3.39951 13.3175 4.01569 13.3175H7.73662C8.35281 13.3175 8.8529 12.8174 8.8529 12.2012C8.8529 11.5851 8.35281 11.085 7.73662 11.085Z" fill="white"/>
<path fill-rule="evenodd" clip-rule="evenodd" d="M25.5967 22.2477H29.3177C29.9339 22.2477 30.434 21.7476 30.434 21.1314C30.434 20.5152 29.9339 20.0151 29.3177 20.0151H25.5967C24.9806 20.0151 24.4805 20.5152 24.4805 21.1314C24.4805 21.7476 24.9806 22.2477 25.5967 22.2477Z" fill="white"/>
<path fill-rule="evenodd" clip-rule="evenodd" d="M22.2482 7.73614V4.0152C22.2482 3.39902 21.7481 2.89893 21.1319 2.89893C20.5157 2.89893 20.0156 3.39902 20.0156 4.0152V7.73614C20.0156 8.35232 20.5157 8.85241 21.1319 8.85241C21.7481 8.85241 22.2482 8.35232 22.2482 7.73614Z" fill="white"/>
<path fill-rule="evenodd" clip-rule="evenodd" d="M20.0156 25.5967V29.3177C20.0156 29.9339 20.5157 30.434 21.1319 30.434C21.7481 30.434 22.2482 29.9339 22.2482 29.3177V25.5967C22.2482 24.9806 21.7481 24.4805 21.1319 24.4805C20.5157 24.4805 20.0156 24.9806 20.0156 25.5967Z" fill="white"/>
<path fill-rule="evenodd" clip-rule="evenodd" d="M7.73662 20.0151H4.01569C3.39951 20.0151 2.89941 20.5152 2.89941 21.1314C2.89941 21.7476 3.39951 22.2477 4.01569 22.2477H7.73662C8.35281 22.2477 8.8529 21.7476 8.8529 21.1314C8.8529 20.5152 8.35281 20.0151 7.73662 20.0151Z" fill="white"/>
</svg>
