<svg width="26" height="31" viewBox="0 0 26 31" fill="none" xmlns="http://www.w3.org/2000/svg">
<path d="M12.9999 10.2791C15.8384 10.2791 18.1394 7.97802 18.1394 5.13954C18.1394 2.30105 15.8384 0 12.9999 0C10.1614 0 7.86035 2.30105 7.86035 5.13954C7.86035 7.97802 10.1614 10.2791 12.9999 10.2791Z" fill="white"/>
<path d="M16.7768 10.9751C15.6886 11.6818 14.3916 12.0928 13.0002 12.0928C11.6089 12.0928 10.3118 11.6818 9.22364 10.9751C8.02069 11.4348 6.90535 12.1131 5.93555 12.9835L13.0002 15.6328L20.0649 12.9835C19.0951 12.1131 17.9798 11.4348 16.7768 10.9751Z" fill="white"/>
<path d="M23.8837 18.7441H23.279C22.7782 18.7441 22.3721 19.1502 22.3721 19.6511V22.0697C22.3721 22.5706 22.7782 22.9767 23.279 22.9767H23.8837C25.0525 22.9767 26 22.0292 26 20.8604C26 19.6916 25.0525 18.7441 23.8837 18.7441Z" fill="white"/>
<path d="M2.80931 14.1655C2.56479 14.335 2.41895 14.6135 2.41895 14.911V16.9302H2.72127C4.22159 16.9302 5.4422 18.1508 5.4422 19.6511V22.0697C5.4422 23.5701 4.22159 24.7907 2.72127 24.7907H2.41895V26.7017C2.41895 27.0797 2.65349 27.4182 3.00745 27.5509L12.0934 30.9581V17.2301L3.64439 14.0617C3.36583 13.9572 3.05377 13.9959 2.80931 14.1655Z" fill="white"/>
<path d="M20.5584 22.0697V19.6511C20.5584 18.1508 21.779 16.9302 23.2793 16.9302H23.5816V14.911C23.5816 14.6135 23.4358 14.335 23.1913 14.1655C22.9468 13.9959 22.6346 13.9572 22.3562 14.0617L13.9072 17.2301V30.9581L22.9931 27.5509C23.3471 27.4182 23.5816 27.0797 23.5816 26.7017V24.7907H23.2793C21.779 24.7907 20.5584 23.5701 20.5584 22.0697Z" fill="white"/>
<path d="M3.62791 22.0697V19.6511C3.62791 19.1502 3.22182 18.7441 2.72093 18.7441H2.11628C0.947488 18.7441 0 19.6916 0 20.8604C0 22.0292 0.947488 22.9767 2.11628 22.9767H2.72093C3.22182 22.9767 3.62791 22.5706 3.62791 22.0697Z" fill="white"/>
</svg>
