<svg width="127" height="126" viewBox="0 0 127 126" fill="none" xmlns="http://www.w3.org/2000/svg">
<path d="M100.582 37.2612L99.521 34.2149C99.3023 33.5836 98.9584 33.003 98.51 32.5077C98.0616 32.0123 97.5179 31.6126 96.9115 31.3322C96.3017 31.0576 95.6431 30.9076 94.9745 30.8912C94.3059 30.8747 93.6408 30.9922 93.0182 31.2366C87.4517 33.3461 82.05 35.867 76.8578 38.7785L74.9852 39.8748C73.0647 35.7508 69.7027 32.4713 65.5324 30.6537C61.362 28.8362 56.6711 28.606 52.3428 30.0065C48.0145 31.4071 44.3477 34.3417 42.0326 38.2578C39.7176 42.1739 38.9142 46.8013 39.7736 51.2686C39.8691 51.5428 39.9593 51.8017 40.0495 52.0606C33.4256 52.9857 26.8914 54.4675 20.5164 56.4903C19.8778 56.6923 19.2861 57.02 18.7762 57.4543C18.2663 57.8885 17.8486 58.4205 17.5476 59.0189C17.2466 59.6172 17.0685 60.2697 17.0237 60.938C16.979 61.6063 17.0685 62.2767 17.287 62.9098L18.3481 65.9561C16.7502 66.9064 15.5298 68.3796 14.8933 70.1264C14.2568 71.8731 14.2433 73.7862 14.8552 75.5417L29.7103 118.19C30.4139 120.21 31.891 121.867 33.8167 122.798C34.7702 123.259 35.8051 123.527 36.8624 123.588C37.9197 123.649 38.9787 123.501 39.9788 123.153L119.182 95.5647C121.202 94.8612 122.86 93.3841 123.791 91.4584C124.721 89.5327 124.849 87.3161 124.145 85.2963L109.29 42.6482C108.687 40.8809 107.489 39.3777 105.901 38.3953C104.313 37.4129 102.433 37.012 100.582 37.2612ZM42.9685 50.634C42.3501 47.2995 42.8425 43.8543 44.37 40.8265C45.8975 37.7986 48.3758 35.3553 51.4251 33.8711C51.9553 33.6184 52.4989 33.3949 53.0535 33.2014C56.6294 31.9463 60.5445 32.0683 64.0353 33.5437C66.1307 34.4151 68.0079 35.7384 69.533 37.419C71.058 39.0996 72.1933 41.0961 72.8578 43.2661C73.5223 45.4361 73.6995 47.7259 73.377 49.9723C73.0545 52.2187 72.24 54.3662 70.9919 56.2615C70.0345 57.6679 69.4175 59.2778 69.1896 60.9639C68.9617 62.6499 69.1292 64.3658 69.6787 65.9759C69.8741 66.5497 69.8358 67.1774 69.572 67.7231C69.3083 68.2688 68.8403 68.6888 68.2692 68.8922L67.3097 69.2264L63.5959 58.5644C63.4726 58.2083 63.2285 57.9065 62.906 57.7116L55.0486 53.0019L63.3497 50.1104L61.573 53.7865C61.4249 54.1648 61.4251 54.585 61.5734 54.9632C61.7218 55.3414 62.0073 55.6497 62.3731 55.8265C62.7388 56.0032 63.1578 56.0355 63.5463 55.9168C63.9348 55.798 64.2642 55.5371 64.4687 55.1861L67.9428 47.9982C68.0774 47.7126 68.1252 47.3938 68.0803 47.0812C68.0354 46.7687 67.8997 46.4763 67.6902 46.2401C67.4806 46.004 67.2064 45.8345 66.9014 45.7528C66.5965 45.671 66.2743 45.6805 65.9747 45.7802L50.7432 51.0856C50.4534 51.186 50.1982 51.367 50.0076 51.6074C49.817 51.8477 49.6988 52.1374 49.6671 52.4425C49.6353 52.7476 49.6912 53.0555 49.8281 53.3299C49.9651 53.6044 50.1776 53.8341 50.4405 53.9921L60.7406 60.1738L64.2634 70.2875L63.3038 70.6217C63.0165 70.7218 62.7122 70.7641 62.4085 70.7461C62.1048 70.728 61.8076 70.6501 61.5341 70.5168C61.2607 70.3834 61.0163 70.1973 60.8151 69.9691C60.6139 69.7409 60.4598 69.4751 60.3617 69.1871C59.7851 67.5885 58.8465 66.1451 57.6192 64.9696C56.392 63.7941 54.9095 62.9184 53.2876 62.4112C50.6684 61.5559 48.3278 60.0109 46.512 57.9385C44.6962 55.8661 43.4722 53.3429 42.9685 50.634ZM20.3333 61.8487C20.2565 61.6221 20.2259 61.3824 20.2433 61.1438C20.2607 60.9051 20.3258 60.6724 20.4347 60.4593C20.5436 60.2462 20.6941 60.0571 20.8773 59.9032C21.0605 59.7493 21.2727 59.6337 21.5014 59.5632C27.8785 57.5387 34.4194 56.0718 41.0504 55.1792C42.0883 57.5962 43.6319 59.7629 45.5773 61.5335C47.5227 63.304 49.8247 64.6374 52.3285 65.4438C53.4889 65.7935 54.552 66.408 55.4342 67.2389C56.3164 68.0698 56.9935 69.0943 57.4121 70.2316C57.8891 71.6015 58.885 72.7294 60.1855 73.3721C61.4859 74.0149 62.9868 74.1212 64.3649 73.668L69.3303 71.9385C70.019 71.6964 70.6531 71.3207 71.1964 70.8331C71.7396 70.3455 72.1813 69.7555 72.4961 69.0968C72.8109 68.4382 72.9926 67.7239 73.0309 66.9949C73.0691 66.266 72.9632 65.5366 72.7191 64.8486C72.3485 63.7052 72.2486 62.4913 72.4274 61.3028C72.6062 60.1142 73.0587 58.9834 73.7493 57.9996C75.1978 55.8066 76.1619 53.3299 76.5774 50.7348C76.9929 48.1397 76.8502 45.4858 76.1589 42.9502L78.5122 41.5668C83.539 38.7472 88.7677 36.3037 94.1554 34.2564C94.3799 34.165 94.6213 34.1229 94.8635 34.1328C95.1056 34.1428 95.3428 34.2046 95.559 34.314C95.7741 34.4143 95.9666 34.5571 96.125 34.7338C96.2834 34.9105 96.4044 35.1175 96.4807 35.3422L113.347 83.7631C113.497 84.1944 113.476 84.6672 113.287 85.0831C113.097 85.499 112.755 85.8258 112.331 85.9956C100.432 90.3196 89.3963 96.7254 79.7402 104.914L70.4929 78.3653L72.0161 77.8348C72.42 77.694 72.7515 77.3986 72.9377 77.0135C73.1238 76.6283 73.1494 76.185 73.0087 75.7811C72.868 75.3771 72.5725 75.0456 72.1874 74.8594C71.8023 74.6733 71.3589 74.6478 70.955 74.7885L64.8624 76.9106C64.4584 77.0513 64.1269 77.3468 63.9408 77.7319C63.7546 78.117 63.7291 78.5604 63.8698 78.9643C64.0105 79.3683 64.3059 79.6998 64.6911 79.8859C65.0762 80.0721 65.5195 80.0976 65.9235 79.9569L67.4466 79.4264L76.6993 105.99C64.0444 105.56 51.4143 107.391 39.4027 111.398C38.9635 111.533 38.4889 111.493 38.0789 111.285C37.6689 111.078 37.3554 110.719 37.2045 110.285L20.3333 61.8487ZM32.7566 117.129L17.9015 74.4806C17.5758 73.537 17.5499 72.5156 17.8274 71.5567C18.1049 70.5977 18.6723 69.7481 19.4517 69.1243L34.1583 111.346C34.5916 112.568 35.4795 113.575 36.6372 114.158C37.7948 114.741 39.1328 114.855 40.3724 114.476C50.0139 111.372 60.0357 109.605 70.1574 109.225L38.9177 120.107C37.7058 120.529 36.3759 120.452 35.2204 119.894C34.065 119.335 33.1788 118.341 32.7566 117.129ZM121.099 86.3573C121.521 87.5692 121.445 88.8992 120.886 90.0546C120.328 91.21 119.333 92.0963 118.121 92.5184L86.8663 103.405C95.0383 97.4116 103.994 92.5681 113.483 89.0101C114.69 88.5369 115.668 87.6164 116.213 86.4403C116.758 85.2642 116.828 83.9231 116.408 82.6967L101.686 40.4294C102.692 40.434 103.672 40.7525 104.489 41.3404C105.306 41.9283 105.92 42.7563 106.244 43.7092L121.099 86.3573Z" fill="white"/>
<path d="M28.919 67.2272C30.9773 66.6639 33.0667 66.1411 35.1317 65.6951L35.3145 65.6314C35.7269 65.515 36.0761 65.2394 36.2854 64.8655C36.4946 64.4915 36.5468 64.0497 36.4303 63.6373C36.3138 63.2249 36.0383 62.8756 35.6643 62.6664C35.2904 62.4571 34.8486 62.405 34.4362 62.5215C32.3255 62.9834 30.1698 63.5122 28.0658 64.0914C27.6527 64.2058 27.302 64.4797 27.0908 64.8527C26.8796 65.2258 26.8253 65.6674 26.9397 66.0805C27.0542 66.4936 27.328 66.8444 27.7011 67.0556C28.0741 67.2667 28.5158 67.3211 28.9289 67.2066L28.919 67.2272Z" fill="white"/>
<path d="M31.1101 73.5178C34.9104 72.4659 38.7619 71.6089 42.6496 70.9501L42.9085 70.8599C43.1145 70.8072 43.308 70.7145 43.4781 70.587C43.6482 70.4596 43.7916 70.2998 43.9 70.117C44.0083 69.9341 44.0796 69.7317 44.1098 69.5213C44.1399 69.3108 44.1284 69.0965 44.0757 68.8906C44.023 68.6846 43.9303 68.4911 43.8028 68.321C43.6754 68.1509 43.5156 68.0075 43.3328 67.8991C43.1499 67.7908 42.9475 67.7195 42.737 67.6893C42.5266 67.6592 42.3123 67.6708 42.1064 67.7234C38.111 68.3974 34.1525 69.2745 30.2464 70.3515C29.8333 70.4659 29.4825 70.7398 29.2713 71.1129C29.0602 71.4859 29.0058 71.9276 29.1203 72.3407C29.2347 72.7538 29.5086 73.1045 29.8816 73.3157C30.2547 73.5269 30.6963 73.5812 31.1094 73.4668L31.1101 73.5178Z" fill="white"/>
<path d="M32.8449 83.0586C32.9597 83.469 33.2323 83.8173 33.6031 84.0274C33.9739 84.2374 34.4127 84.2922 34.8238 84.1798C43.1444 81.8412 51.7139 80.5018 60.3512 80.1899C60.7792 80.1767 61.1845 79.994 61.4778 79.682C61.7711 79.3701 61.9285 78.9544 61.9153 78.5264C61.9021 78.0984 61.7194 77.6931 61.4075 77.3998C61.0955 77.1065 60.6798 76.9491 60.2518 76.9623C51.3518 77.2609 42.5189 78.6175 33.9395 81.0036C33.7302 81.0626 33.5349 81.1634 33.3656 81.2999C33.1962 81.4363 33.0561 81.6056 32.9539 81.7976C32.8516 81.9896 32.7893 82.2003 32.7705 82.417C32.7518 82.6337 32.7771 82.8519 32.8449 83.0586Z" fill="white"/>
<path d="M62.8721 84.4356C53.9721 84.7343 45.1393 86.0909 36.5598 88.4769C36.3553 88.5335 36.1639 88.6299 35.9966 88.7606C35.8293 88.8912 35.6894 89.0535 35.5848 89.2382C35.3736 89.6113 35.3193 90.0529 35.4337 90.466C35.5482 90.8791 35.8221 91.2299 36.1951 91.441C36.5681 91.6522 37.0098 91.7066 37.4229 91.5921C45.7459 89.2585 54.3171 87.9242 62.9557 87.6175C63.3312 87.5455 63.6689 87.3424 63.9085 87.0445C64.1482 86.7466 64.2743 86.3733 64.2643 85.9911C64.2542 85.6089 64.1087 85.2427 63.8538 84.9578C63.5988 84.6729 63.2509 84.4878 62.8721 84.4356Z" fill="white"/>
<path d="M65.5247 92.0513C56.6247 92.3499 47.7918 93.7065 39.2124 96.0926C38.7993 96.207 38.4486 96.4809 38.2374 96.854C38.0262 97.227 37.9719 97.6686 38.0863 98.0818C38.2008 98.4949 38.4747 98.8456 38.8477 99.0568C39.2207 99.268 39.6624 99.3223 40.0755 99.2079C48.4218 96.9338 57.0095 95.6627 65.6567 95.4213C66.1036 95.4038 66.5252 95.2095 66.8288 94.8811C67.1324 94.5527 67.2932 94.1172 67.2757 93.6703C67.2582 93.2234 67.0639 92.8018 66.7355 92.4982C66.4071 92.1946 65.9716 92.0338 65.5247 92.0513Z" fill="white"/>
<path d="M76.0869 74.8113C76.2463 74.7815 76.4004 74.7279 76.5438 74.6522C83.5034 69.5256 91.0488 65.2461 99.0206 61.9042C99.4154 61.7372 99.7278 61.4202 99.8889 61.023C100.05 60.6258 100.047 60.1808 99.8797 59.786C99.7128 59.3911 99.3958 59.0788 98.9986 58.9177C98.6013 58.7566 98.1564 58.7599 97.7615 58.9268C89.5563 62.3872 81.792 66.8116 74.6325 72.107C74.4429 72.2066 74.2748 72.3427 74.1378 72.5073C74.0008 72.6719 73.8976 72.862 73.834 73.0665C73.7057 73.4795 73.7466 73.9267 73.9479 74.3095C74.1492 74.6924 74.4944 74.9796 74.9075 75.108C75.3205 75.2364 75.7677 75.1954 76.1505 74.9941L76.0869 74.8113Z" fill="white"/>
<path d="M78.6705 82.229C78.83 82.1993 78.984 82.1456 79.1275 82.0699C86.075 76.9187 93.6116 72.6137 101.578 69.2457C101.773 69.163 101.951 69.0427 102.1 68.8915C102.248 68.7403 102.366 68.5612 102.446 68.3645C102.526 68.1679 102.566 67.9574 102.564 67.7451C102.563 67.5329 102.52 67.323 102.437 67.1275C102.354 66.932 102.234 66.7547 102.083 66.6058C101.931 66.4568 101.752 66.339 101.556 66.2593C101.359 66.1795 101.149 66.1392 100.936 66.1408C100.724 66.1424 100.514 66.1857 100.319 66.2684C92.1135 69.7288 84.3492 74.1533 77.1896 79.4485C76.8068 79.6498 76.5196 79.995 76.3912 80.408C76.2628 80.8211 76.3038 81.2682 76.5051 81.6511C76.7064 82.034 77.0515 82.3212 77.4646 82.4495C77.8776 82.5779 78.3248 82.537 78.7076 82.3356L78.6705 82.229Z" fill="white"/>
<path d="M81.3604 89.9513C81.5199 89.9216 81.6739 89.8679 81.8174 89.7922C88.777 84.6656 96.3224 80.3862 104.294 77.0442C104.689 76.8772 105.001 76.5602 105.162 76.163C105.324 75.7658 105.32 75.3208 105.153 74.926C104.986 74.5312 104.669 74.2188 104.272 74.0577C103.875 73.8966 103.43 73.8999 103.035 74.0669C94.8166 77.4652 87.0311 81.8282 79.8424 87.0642C79.4595 87.2655 79.1723 87.6107 79.0439 88.0237C78.9156 88.4368 78.9565 88.8839 79.1578 89.2668C79.3591 89.6496 79.7043 89.9369 80.1173 90.0652C80.5304 90.1936 80.9776 90.1526 81.3604 89.9513Z" fill="white"/>
<path d="M50.4007 25.5857C50.8047 25.445 51.1362 25.1496 51.3224 24.7644C51.5085 24.3793 51.534 23.936 51.3933 23.532L49.2712 17.4394C49.1305 17.0355 48.835 16.7039 48.4499 16.5178C48.0648 16.3316 47.6214 16.3061 47.2175 16.4468C46.8135 16.5875 46.482 16.8829 46.2958 17.2681C46.1097 17.6532 46.0842 18.0965 46.2249 18.5005L48.347 24.5931C48.4877 24.9971 48.7832 25.3286 49.1683 25.5147C49.5534 25.7009 49.9968 25.7264 50.4007 25.5857Z" fill="white"/>
<path d="M62.7239 26.2976C62.9248 26.2289 63.1101 26.1213 63.2693 25.9809C63.4285 25.8404 63.5584 25.6699 63.6515 25.4792L66.4606 19.6673C66.6086 19.289 66.6085 18.8687 66.4601 18.4906C66.3118 18.1124 66.0262 17.8041 65.6605 17.6273C65.2947 17.4505 64.8757 17.4183 64.4872 17.537C64.0987 17.6557 63.7694 17.9167 63.5649 18.2677L60.7353 24.0697C60.5947 24.3576 60.543 24.6808 60.5868 24.9981C60.6306 25.3155 60.7679 25.6126 60.9813 25.8516C61.1946 26.0906 61.4743 26.2607 61.7847 26.3401C62.095 26.4195 62.422 26.4047 62.7239 26.2976Z" fill="white"/>
<path d="M39.9514 33.7344C40.3297 33.8825 40.7499 33.8823 41.1281 33.734C41.5063 33.5856 41.8145 33.3001 41.9913 32.9343C42.1681 32.5686 42.2003 32.1496 42.0816 31.7611C41.9629 31.3726 41.702 31.0432 41.3509 30.8387L35.5489 28.0091C35.1706 27.8611 34.7504 27.8612 34.3722 28.0096C33.994 28.1579 33.6858 28.4435 33.509 28.8092C33.3322 29.175 33.3 29.594 33.4187 29.9825C33.5374 30.371 33.7983 30.7003 34.1494 30.9048L39.9514 33.7344Z" fill="white"/>
</svg>
