<svg width="28" height="28" viewBox="0 0 28 28" fill="none" xmlns="http://www.w3.org/2000/svg">
<path d="M25.4286 2.93014L18.2857 0.239014C17.0001 -0.1859 15.7143 -0.0442619 14.7143 0.663928C14.2857 0.947204 14 1.23048 13.7143 1.51376H8.28572C6.14286 1.51376 4.28571 3.35505 4.28571 5.47962V6.89599C4.28571 7.46254 4.71429 8.02909 5.42857 8.02909C6.14286 8.02909 6.57143 7.46254 6.57143 6.89599V5.47962C6.57143 4.48815 7.42857 3.77996 8.28572 3.77996H13V24.3174H8.28572C7.28571 24.3174 6.57143 23.4676 6.57143 22.6177V21.2015C6.57143 20.6349 6.14286 20.0683 5.42857 20.0683C4.71429 20.0683 4.28571 20.4932 4.28571 21.0598V22.4762C4.28571 24.6007 6.00001 26.4419 8.28572 26.4419H13.7143C14 26.7253 14.2857 27.1502 14.5715 27.2919C15.2858 27.7168 16 28 16.8571 28C17.2857 28 17.8571 27.8583 18.2857 27.7168L25.4286 25.0256C27 24.4591 28 23.0427 28 21.343V6.47107C28 4.91307 26.8572 3.35505 25.4286 2.93014Z" fill="white"/>
<path d="M6.14286 16.1024C5.71428 16.5273 5.71428 17.2355 6.14286 17.6604C6.28572 17.8021 6.57143 17.9437 6.85714 17.9437C7.14286 17.9437 7.42857 17.8021 7.57142 17.6604L10.4286 14.8277C10.5714 14.686 10.5714 14.5445 10.7143 14.5445C10.7143 14.4028 10.8571 14.2611 10.8571 14.1196C10.8571 13.9779 10.8571 13.8362 10.7143 13.6947C10.7143 13.553 10.5714 13.4113 10.4286 13.4113L7.57142 10.5786C7.14286 10.1537 6.42858 10.1537 5.99999 10.5786C5.57143 11.0035 5.57143 11.7117 5.99999 12.1366L7 13.1281H1.14286C0.571424 13.1281 0 13.553 0 14.2611C0 14.9694 0.428568 15.3943 1.14286 15.3943H7.14286L6.14286 16.1024Z" fill="white"/>
</svg>
